<?xml version="1.0" encoding="utf-8"?>
<!-- Generator: Adobe Illustrator 27.7.0, SVG Export Plug-In . SVG Version: 6.00 Build 0)  -->
<svg version="1.1" id="Layer_1" xmlns="http://www.w3.org/2000/svg" xmlns:xlink="http://www.w3.org/1999/xlink" x="0px" y="0px"
	 viewBox="0 0 170 34" style="enable-background:new 0 0 170 34;" xml:space="preserve">
<style type="text/css">
	.st0{clip-path:url(#SVGID_00000132067600464626592860000015177748381946813580_);}
	.st1{fill:#5A5B5D;}
	.st2{fill:#8FCC09;}
</style>
<g>
	<defs>
		<rect id="SVGID_1_" x="2.1" width="165.8" height="34"/>
	</defs>
	<clipPath id="SVGID_00000024688338478220635570000002293703006949449904_">
		<use xlink:href="#SVGID_1_"  style="overflow:visible;"/>
	</clipPath>
	<g style="clip-path:url(#SVGID_00000024688338478220635570000002293703006949449904_);">
		<path class="st1" d="M46.6,7.5c7.5,0.8,12.1,1.4,17.6,2c0.6,0.1,1.1,0.4,1.6,1.1c0.4,0.7,0.6,1.5,0.6,2.3c0,2.8,0,5.5,0,8.3
			c0,0.8-0.2,1.7-0.6,2.3c-0.4,0.7-1,1.1-1.6,1.1c-5.5,0.6-10.1,1.2-17.6,2C46.6,20.3,46.6,13.9,46.6,7.5z M167.9,25.4
			c0,1-0.5,1.5-1.6,1.5h-2.8c-0.9,0-1.4-0.4-1.8-1.2l-5.4-10.2c-0.4-0.8-1-2-1.2-3h-0.3c0.1,1,0.2,2,0.2,3v11.3h-4.3V9.3
			c0-1,0.6-1.5,1.6-1.5h2.8c0.9,0,1.4,0.4,1.8,1.2l5.2,9.9c0.4,0.8,1,2,1.5,3.1h0.3c-0.1-1.1-0.2-2.1-0.2-3.2v-11h4.3V25.4
			L167.9,25.4z M142,26.9h4.5v-19H142V26.9z M135.9,25.7c-0.1,0.7-0.8,1.2-1.6,1.2H130c-0.8,0-1.5-0.5-1.6-1.2l-2.2-12.4
			c-0.1-0.8-0.3-1.6-0.4-2.4h-0.6c-0.1,0.8-0.2,1.6-0.4,2.4l-2.2,12.4c-0.1,0.7-0.8,1.2-1.6,1.2h-4.3c-0.8,0-1.5-0.5-1.6-1.2
			l-3.2-17.9h4.6l2,13.2c0.1,0.8,0.2,1.7,0.3,2.8h0.6c0.1-0.9,0.3-1.9,0.4-2.8L122,9.1c0.1-0.8,0.7-1.3,1.6-1.3h3.9
			c0.8,0,1.5,0.5,1.6,1.3l2.2,11.9c0.1,0.9,0.3,1.9,0.4,2.7h0.6c0.1-0.9,0.1-1.9,0.3-2.7l2-13.3h4.6L135.9,25.7z M101.9,16.2
			c2.4,0,3.1-0.6,3.1-2.7c0-2.1-0.7-2.7-3.1-2.7l-3.3,0v5.4L101.9,16.2L101.9,16.2z M105.5,26.9L104,21c-0.4-1.2-1-1.6-2.2-1.6
			l-3.2,0v7.5h-4.4v-19c2.5-0.2,4.1-0.2,7.8-0.2c5.3,0,7.6,1.3,7.6,5.6c0,2.7-1,4.4-3.9,4.7v0.1c1,0.2,2.4,0.9,2.9,2.9l1.8,5.9
			L105.5,26.9L105.5,26.9z M83.3,12.8c-0.1-0.6-0.3-1.2-0.4-1.8h-0.8c-0.1,0.6-0.3,1.2-0.4,1.8L80,18.6H85L83.3,12.8z M79,21.9
			l-1.5,5h-4.6l5.9-17.9c0.2-0.7,0.8-1.1,1.6-1.1h4.3c0.8,0,1.4,0.4,1.6,1.1l5.9,17.9h-4.6l-1.5-5H79z M40.5,0L40.5,0l0,34
			c5.5-0.9,10.3-1.8,14.8-2.5c4-0.7,7.6-1.3,10.9-1.9c0.8-0.1,1.5-0.4,2.1-0.9c0.6-0.5,1.2-1.1,1.7-1.8c0.5-0.7,0.8-1.5,1.1-2.4
			c0.3-0.9,0.4-1.8,0.4-2.9c0-3.1,0-6.2,0-9.3c0-1-0.1-2-0.4-2.9c-0.3-0.9-0.6-1.7-1.1-2.4c-0.5-0.7-1-1.3-1.7-1.8
			c-0.7-0.5-1.4-0.8-2.1-0.9c-3.3-0.6-7-1.2-11-1.9C50.9,1.8,46,0.9,40.5,0L40.5,0z"/>
		<path class="st2" d="M27,13.8l-9.5,0.3V8.6c2.8-0.3,5.8-0.7,9.5-1.1C27,9.6,27,11.7,27,13.8z M33.2,0L33.2,0
			c-5.5,0.9-10.4,1.8-14.8,2.5c-4,0.7-16.2,2.8-16.2,2.8l0,23.4c0,0,12.3,2.1,16.3,2.8c4.4,0.8,9.3,1.6,14.8,2.5V0L33.2,0z M27,26.7
			c-3.7-0.4-6.7-0.7-9.5-1.1v-9.9l9.5-0.3C27,19.1,27,22.9,27,26.7z M16,14.1l-7.7,0.2V9.6c0,0,5.5-0.6,7.7-0.8V14.1z M16,25.4
			c-2.2-0.3-4.3-0.5-6.5-0.7c-0.6-0.1-1.2-0.1-1.2-0.1V16l7.7-0.2L16,25.4L16,25.4z"/>
	</g>
</g>
</svg>
