<?xml version="1.0" encoding="utf-8"?>
<!-- Generator: Adobe Illustrator 21.1.0, SVG Export Plug-In . SVG Version: 6.00 Build 0)  -->
<svg version="1.1" id="Layer_1" xmlns="http://www.w3.org/2000/svg" xmlns:xlink="http://www.w3.org/1999/xlink" x="0px" y="0px"
	 viewBox="0 0 443.5 107.7" style="enable-background:new 0 0 443.5 107.7;" xml:space="preserve">
<style type="text/css">
	.st0{fill:#B3B3B3;}
	.st1{fill:#2660AB;}
	.st2{fill:#D9782C;}
</style>
<g>
	<g>
		<g>
			<polygon class="st0" points="443.4,56 443.4,107 393.6,107 393.6,97.3 433.2,97.3 433.2,56 			"/>
		</g>
		<g>
			<rect x="433.2" y="0.1" class="st1" width="10.3" height="50.9"/>
		</g>
		<g>
			<polygon class="st1" points="436,9.9 393.6,9.9 393.6,0 443.3,0 443.3,9.9 			"/>
		</g>
		<g>
			<polygon class="st0" points="348.6,97.3 388.4,97.3 388.4,107 338.7,107 338.7,56 348.6,56 			"/>
		</g>
		<g>
			<polygon class="st0" points="348.6,9.9 348.6,50.9 338.7,50.9 338.7,0 388.4,0 388.4,9.9 			"/>
		</g>
		<rect x="393.6" y="56" class="st0" width="35" height="36.7"/>
		<rect x="393.6" y="14.4" class="st2" width="35" height="36.5"/>
		<rect x="353.1" y="56" class="st0" width="35.3" height="36.7"/>
		<rect x="352.8" y="14.1" class="st0" width="35.5" height="36.8"/>
	</g>
	<g>
		<g>
			<path class="st2" d="M29,85.2v-9.9h25.4v23.3c-2.5,2.4-6,4.5-10.7,6.3s-9.4,2.7-14.2,2.7c-6.1,0-11.4-1.3-15.9-3.9
				s-7.9-6.2-10.2-11S0,82.7,0,77.1C0,71,1.3,65.6,3.8,60.9S10.1,52.5,15,50c3.7-1.9,8.4-2.9,14-2.9c7.2,0,12.9,1.5,17,4.6
				c4.1,3,6.7,7.3,7.9,12.6l-11.7,2.2c-0.8-2.9-2.4-5.1-4.6-6.8c-2.3-1.7-5.1-2.5-8.5-2.5c-5.1,0-9.2,1.6-12.3,4.9
				c-3,3.3-4.6,8.1-4.6,14.6c0,6.9,1.5,12.2,4.6,15.6c3.1,3.5,7.1,5.2,12.1,5.2c2.5,0,4.9-0.5,7.4-1.5s4.6-2.1,6.4-3.5v-7.4L29,85.2
				L29,85.2z"/>
		</g>
		<g>
			<path class="st2" d="M59.3,84.9c0-3.7,0.9-7.3,2.7-10.8s4.4-6.1,7.8-8c3.4-1.8,7.1-2.8,11.2-2.8c6.4,0,11.6,2.1,15.7,6.2
				c4.1,4.2,6.1,9.4,6.1,15.8s-2.1,11.7-6.2,15.9c-4.1,4.2-9.3,6.3-15.6,6.3c-3.9,0-7.6-0.9-11.1-2.6c-3.5-1.8-6.2-4.3-8-7.7
				C60.2,93.9,59.3,89.8,59.3,84.9z M70.7,85.5c0,4.2,1,7.4,3,9.7c2,2.2,4.4,3.4,7.4,3.4c2.9,0,5.4-1.1,7.3-3.4c2-2.2,3-5.5,3-9.7
				s-1-7.3-3-9.6c-2-2.2-4.4-3.4-7.3-3.4s-5.4,1.1-7.4,3.4C71.7,78.1,70.7,81.3,70.7,85.5z"/>
		</g>
		<g>
			<path class="st2" d="M105.8,84.9c0-3.7,0.9-7.3,2.7-10.8s4.4-6.1,7.8-8c3.4-1.8,7.1-2.8,11.2-2.8c6.4,0,11.6,2.1,15.7,6.2
				c4.1,4.2,6.1,9.4,6.1,15.8s-2.1,11.7-6.2,15.9c-4.1,4.2-9.3,6.3-15.6,6.3c-3.9,0-7.6-0.9-11.1-2.6c-3.5-1.8-6.2-4.3-8-7.7
				C106.7,93.9,105.8,89.8,105.8,84.9z M117.2,85.5c0,4.2,1,7.4,3,9.7c2,2.2,4.4,3.4,7.4,3.4c3,0,5.4-1.1,7.3-3.4c2-2.2,3-5.5,3-9.7
				s-1-7.3-3-9.6c-2-2.2-4.4-3.4-7.3-3.4s-5.4,1.1-7.4,3.4C118.2,78.1,117.2,81.3,117.2,85.5z"/>
		</g>
		<g>
			<path class="st2" d="M193.6,106.7h-10.4v-6.2c-1.7,2.4-3.8,4.2-6.1,5.4s-4.7,1.8-7.1,1.8c-4.9,0-9-2-12.5-5.9s-5.2-9.4-5.2-16.4
				c0-7.2,1.7-12.6,5-16.4c3.4-3.7,7.6-5.6,12.8-5.6c4.7,0,8.8,2,12.2,5.9V48.2h11.2v58.5H193.6z M163.7,84.6c0,4.5,0.6,7.8,1.9,9.8
				c1.8,2.9,4.3,4.4,7.6,4.4c2.6,0,4.8-1.1,6.6-3.3s2.7-5.5,2.7-9.8c0-4.9-0.9-8.4-2.6-10.5c-1.7-2.1-4-3.2-6.7-3.2
				s-4.9,1.1-6.7,3.2C164.6,77.2,163.7,80.4,163.7,84.6z"/>
		</g>
		<g>
			<path class="st1" d="M209.2,106.7l-13.4-42.4h10.9l7.9,27.8l7.3-27.8h10.8l7,27.8l8.1-27.8h11l-13.6,42.4h-10.7l-7.3-27.3
				l-7.2,27.3H209.2L209.2,106.7z"/>
		</g>
		<g>
			<path class="st1" d="M261.4,58.6V48.2h11.2v10.4H261.4z M261.4,106.7V64.3h11.2v42.4C272.6,106.7,261.4,106.7,261.4,106.7z"/>
		</g>
		<g>
			<path class="st1" d="M319.2,106.7H308V85.1c0-4.6-0.2-7.5-0.7-8.9c-0.5-1.3-1.3-2.4-2.3-3.1c-1.1-0.7-2.4-1.1-3.9-1.1
				c-1.9,0-3.7,0.5-5.2,1.6s-2.6,2.5-3.2,4.2c-0.6,1.8-0.9,5-0.9,9.7v19.2h-11.2V64.3h10.5v6.2c3.7-4.8,8.3-7.2,13.9-7.2
				c2.5,0,4.7,0.4,6.8,1.3c2,0.9,3.6,2,4.6,3.4s1.8,3,2.2,4.7c0.4,1.8,0.6,4.3,0.6,7.5L319.2,106.7L319.2,106.7z"/>
		</g>
	</g>
</g>
</svg>
